<?xml version="1.0" encoding="UTF-8"?>
<svg width="72px" height="28px" viewBox="0 0 72 28" version="1.1" xmlns="http://www.w3.org/2000/svg" xmlns:xlink="http://www.w3.org/1999/xlink">
    <title>logo_name</title>
    <g id="Symbols" stroke="none" stroke-width="1" fill="none" fill-rule="evenodd">
        <g id="Core-/-Branding-/-Wordmark-/-White" fill="#FFFFFF">
            <path d="M41.957932,0.5 C42.8004432,0.5 43.515691,0.561432187 44.1036913,0.684298175 L44.3479008,0.740716284 L44.3479008,0.740716284 C45.2515943,0.970747348 45.8090741,1.8770934 45.6067548,2.78739172 L45.3616843,3.89020888 C45.2164471,4.54365812 44.6194115,4.98651738 43.9638552,4.94986161 L43.8320802,4.93605724 L43.8320802,4.93605724 C43.3850335,4.86728081 42.9322621,4.83289311 42.4737526,4.83289311 C41.8547648,4.83289311 41.3332181,4.91886236 40.9090968,5.09080342 C40.4849755,5.26274448 40.1525611,5.49772708 39.9118436,5.79575825 C39.6711261,6.09378943 39.4991876,6.44912896 39.396023,6.86178751 C39.2928584,7.27444606 39.2412768,7.72148612 39.2412768,8.20292109 L39.2412768,8.91432368 L43.5686763,8.91432368 C44.6732458,8.91432368 45.5686763,9.80975418 45.5686763,10.9143237 L45.5686763,11.1784407 C45.5686763,12.2830102 44.6732458,13.1784407 43.5686763,13.1784407 L39.2412768,13.1784407 L39.2412768,24.8058969 C39.2412768,26.2208002 38.0942711,27.367806 36.6793678,27.367806 C35.2644645,27.367806 34.1174588,26.2208002 34.1174588,24.8058969 L34.1174588,8.13414501 C34.1174588,5.79574656 34.7765563,3.93881094 36.0947711,2.56328244 C37.4129859,1.18775393 39.3673533,0.5 41.957932,0.5 Z M3.07772963,8.91217443 C4.49263292,8.91217443 5.63963866,10.0591802 5.63963866,11.4740835 L5.63963866,24.8015984 C5.63963866,26.2165017 4.49263292,27.3635075 3.07772963,27.3635075 C1.66282635,27.3635075 0.515820609,26.2165017 0.515820609,24.8015984 L0.515820609,11.4740835 C0.515820609,10.0591802 1.66282635,8.91217443 3.07772963,8.91217443 Z M51.4860613,8.91217443 C52.9009646,8.91217443 54.0479703,10.0591802 54.0479703,11.4740835 L54.0479703,24.8015984 C54.0479703,26.2165017 52.9009646,27.3635075 51.4860613,27.3635075 C50.071158,27.3635075 48.9241523,26.2165017 48.9241523,24.8015984 L48.9241523,11.4740835 C48.9241523,10.0591802 50.071158,8.91217443 51.4860613,8.91217443 Z M65.3552527,3.79651823 C65.4130166,3.9522979 65.4425905,4.11711597 65.4425905,4.28326042 L65.4425905,8.91217443 L69.5980498,8.91217443 C70.7026193,8.91217443 71.5980498,9.80760493 71.5980498,10.9121744 L71.5980498,11.1762915 C71.5980498,12.280861 70.7026193,13.1762915 69.5980498,13.1762915 L65.4425905,13.1762915 L65.4425905,19.4843477 C65.4425905,20.561845 65.6317228,21.4215374 66.0099932,22.0634507 C66.3882635,22.705364 67.1505241,23.0263158 68.2967979,23.0263158 C68.736967,23.0263158 69.1881349,22.9933036 69.6503103,22.9272785 L69.9990059,22.8715697 L69.9990059,22.8715697 C70.8975822,22.7129974 71.7553103,23.3105853 71.9178882,24.2084456 L71.9636894,24.4614426 C72.1694877,25.5979979 71.493718,26.6995405 70.4075321,27.0421564 L70.2569162,27.0841046 L70.2569162,27.0841046 C69.5003755,27.2675084 68.5719077,27.359209 67.4714849,27.359209 C66.0730309,27.359209 64.9153118,27.1700766 63.9982928,26.7918063 C63.0812738,26.4135359 62.3476696,25.8862579 61.7974582,25.2099564 C61.2472468,24.5336549 60.8632508,23.7140815 60.6454588,22.7512115 C60.4276668,21.7883416 60.3187724,20.7223171 60.3187724,19.5531237 L60.3187724,5.56238233 C60.3187724,4.72599745 60.8392187,3.97793906 61.6234265,3.68715062 L63.5558483,2.97059822 C64.2808116,2.70177794 65.0864324,3.07155492 65.3552527,3.79651823 Z M19.880586,8.91217443 C24.9253334,8.91217443 29.0149092,13.0017503 29.0149092,18.0464977 C29.0149092,23.0912452 24.9253334,27.180821 19.880586,27.180821 C14.8358385,27.180821 10.7462627,23.0912452 10.7462627,18.0464977 C10.7462627,13.0017503 14.8358385,8.91217443 19.880586,8.91217443 Z M19.880586,13.9867985 C17.638476,13.9867985 15.8208867,15.8043877 15.8208867,18.0464977 C15.8208867,20.2886077 17.638476,22.1061969 19.880586,22.1061969 C22.1226959,22.1061969 23.9402852,20.2886077 23.9402852,18.0464977 C23.9402852,15.8043877 22.1226959,13.9867985 19.880586,13.9867985 Z M3.06053561,0.5 C3.88585271,0.5 4.60226306,0.769370291 5.20978815,1.30811895 C5.81731324,1.84686762 6.12107122,2.5862031 6.12107122,3.52614757 C6.12107122,4.46609205 5.81731324,5.20542753 5.20978815,5.74417619 C4.60226306,6.28292485 3.88585271,6.55229514 3.06053561,6.55229514 C2.23521851,6.55229514 1.51880816,6.28292485 0.911283076,5.74417619 C0.303757988,5.20542753 1.50990331e-14,4.46609205 1.50990331e-14,3.52614757 C1.50990331e-14,2.5862031 0.303757988,1.84686762 0.911283076,1.30811895 C1.51880816,0.769370291 2.23521851,0.5 3.06053561,0.5 Z M51.4688673,0.5 C52.2941844,0.5 53.0105947,0.769370291 53.6181198,1.30811895 C54.2256449,1.84686762 54.5294029,2.5862031 54.5294029,3.52614757 C54.5294029,4.46609205 54.2256449,5.20542753 53.6181198,5.74417619 C53.0105947,6.28292485 52.2941844,6.55229514 51.4688673,6.55229514 C50.6435502,6.55229514 49.9271398,6.28292485 49.3196147,5.74417619 C48.7120896,5.20542753 48.4083317,4.46609205 48.4083317,3.52614757 C48.4083317,2.5862031 48.7120896,1.84686762 49.3196147,1.30811895 C49.9271398,0.769370291 50.6435502,0.5 51.4688673,0.5 Z" id="logo_name"></path>
        </g>
    </g>
</svg>